<?xml version="1.0" encoding="utf-8"?>
<!-- Generator: Adobe Illustrator 20.1.0, SVG Export Plug-In . SVG Version: 6.00 Build 0)  -->
<svg version="1.1" id="Layer_1" xmlns="http://www.w3.org/2000/svg" xmlns:xlink="http://www.w3.org/1999/xlink" x="0px" y="0px"
	 viewBox="0 0 1080 1080" style="enable-background:new 0 0 1080 1080;" xml:space="preserve">
<style type="text/css">
	.st0{fill:#BCBEC0;}
	.st1{fill:#6D6E71;}
</style>
<circle class="st0" cx="540" cy="540" r="385.2"/>
<path class="st1" d="M540,792.6C540,792.6,540,792.6,540,792.6c-5.2,0-10.1-2.2-13.6-6l-50.3-56c-0.3-0.3-0.7-0.5-1.1-0.5H349.7
	c-40.7,0-73.9-33.1-73.9-73.9V434.5c0-40.7,33.1-73.9,73.9-73.9h380.6c40.7,0,73.9,33.1,73.9,73.9v221.7c0,40.7-33.1,73.9-73.9,73.9
	H604.9c-0.4,0-0.7,0.2-1,0.4l-50.4,56.1C550.1,790.4,545.2,792.6,540,792.6z M349.7,377c-31.7,0-57.5,25.8-57.5,57.5v221.7
	c0,31.7,25.8,57.5,57.5,57.5H475c5.1,0,9.9,2.2,13.3,5.9l50.3,56c0.4,0.5,1,0.6,1.3,0.6l0,0c0.4,0,0.9-0.1,1.3-0.6l50.4-56.1
	c3.4-3.7,8.2-5.9,13.2-5.9h125.3c31.7,0,57.5-25.8,57.5-57.5V434.5c0-31.7-25.8-57.5-57.5-57.5H349.7z"/>
</svg>
